<?xml version="1.0" encoding="utf-8" standalone="no"?>
<!DOCTYPE svg PUBLIC "-//W3C//DTD SVG 1.1//EN"
  "http://www.w3.org/Graphics/SVG/1.1/DTD/svg11.dtd">
<svg xmlns:xlink="http://www.w3.org/1999/xlink" width="540pt" height="396pt" viewBox="0 0 540 396" xmlns="http://www.w3.org/2000/svg" version="1.1">
 <metadata>
  <rdf:RDF xmlns:dc="http://purl.org/dc/elements/1.1/" xmlns:cc="http://creativecommons.org/ns#" xmlns:rdf="http://www.w3.org/1999/02/22-rdf-syntax-ns#">
   <cc:Work>
    <dc:type rdf:resource="http://purl.org/dc/dcmitype/StillImage"/>
    <dc:date>2026-04-07T17:29:57.755123</dc:date>
    <dc:format>image/svg+xml</dc:format>
    <dc:creator>
     <cc:Agent>
      <dc:title>Matplotlib v3.10.8, https://matplotlib.org/</dc:title>
     </cc:Agent>
    </dc:creator>
   </cc:Work>
  </rdf:RDF>
 </metadata>
 <defs>
  <style type="text/css">*{stroke-linejoin: round; stroke-linecap: butt}</style>
 </defs>
 <g id="figure_1">
  <g id="patch_1">
   <path d="M 0 396 
L 540 396 
L 540 0 
L 0 0 
z
" style="fill: #ffffff"/>
  </g>
  <g id="axes_1">
   <g id="patch_2">
    <path d="M 55.655 346.24 
L 529.157178 346.24 
L 529.157178 41.6 
L 55.655 41.6 
z
" style="fill: #ffffff"/>
   </g>
   <g id="matplotlib.axis_1">
    <g id="xtick_1">
     <g id="line2d_1">
      <path d="M 69.351344 346.24 
L 69.351344 41.6 
" clip-path="url(#pd7fae40863)" style="fill: none; stroke: #b0b0b0; stroke-opacity: 0.5; stroke-width: 0.8; stroke-linecap: square"/>
     </g>
     <g id="line2d_2">
      <defs>
       <path id="m6a9207baf7" d="M 0 0 
L 0 3.5 
" style="stroke: #000000; stroke-width: 0.8"/>
      </defs>
      <g>
       <use xlink:href="#m6a9207baf7" x="69.351344" y="346.24" style="stroke: #000000; stroke-width: 0.8"/>
      </g>
     </g>
     <g id="text_1">
      <!-- 0.0 -->
      <g transform="translate(61.399781 360.838437) scale(0.1 -0.1)">
       <defs>
        <path id="DejaVuSans-30" d="M 2034 4250 
Q 1547 4250 1301 3770 
Q 1056 3291 1056 2328 
Q 1056 1369 1301 889 
Q 1547 409 2034 409 
Q 2525 409 2770 889 
Q 3016 1369 3016 2328 
Q 3016 3291 2770 3770 
Q 2525 4250 2034 4250 
z
M 2034 4750 
Q 2819 4750 3233 4129 
Q 3647 3509 3647 2328 
Q 3647 1150 3233 529 
Q 2819 -91 2034 -91 
Q 1250 -91 836 529 
Q 422 1150 422 2328 
Q 422 3509 836 4129 
Q 1250 4750 2034 4750 
z
" transform="scale(0.015625)"/>
        <path id="DejaVuSans-2e" d="M 684 794 
L 1344 794 
L 1344 0 
L 684 0 
L 684 794 
z
" transform="scale(0.015625)"/>
       </defs>
       <use xlink:href="#DejaVuSans-30"/>
       <use xlink:href="#DejaVuSans-2e" transform="translate(63.623047 0)"/>
       <use xlink:href="#DejaVuSans-30" transform="translate(95.410156 0)"/>
      </g>
     </g>
    </g>
    <g id="xtick_2">
     <g id="line2d_3">
      <path d="M 125.254789 346.24 
L 125.254789 41.6 
" clip-path="url(#pd7fae40863)" style="fill: none; stroke: #b0b0b0; stroke-opacity: 0.5; stroke-width: 0.8; stroke-linecap: square"/>
     </g>
     <g id="line2d_4">
      <g>
       <use xlink:href="#m6a9207baf7" x="125.254789" y="346.24" style="stroke: #000000; stroke-width: 0.8"/>
      </g>
     </g>
     <g id="text_2">
      <!-- 2.5 -->
      <g transform="translate(117.303226 360.838437) scale(0.1 -0.1)">
       <defs>
        <path id="DejaVuSans-32" d="M 1228 531 
L 3431 531 
L 3431 0 
L 469 0 
L 469 531 
Q 828 903 1448 1529 
Q 2069 2156 2228 2338 
Q 2531 2678 2651 2914 
Q 2772 3150 2772 3378 
Q 2772 3750 2511 3984 
Q 2250 4219 1831 4219 
Q 1534 4219 1204 4116 
Q 875 4013 500 3803 
L 500 4441 
Q 881 4594 1212 4672 
Q 1544 4750 1819 4750 
Q 2544 4750 2975 4387 
Q 3406 4025 3406 3419 
Q 3406 3131 3298 2873 
Q 3191 2616 2906 2266 
Q 2828 2175 2409 1742 
Q 1991 1309 1228 531 
z
" transform="scale(0.015625)"/>
        <path id="DejaVuSans-35" d="M 691 4666 
L 3169 4666 
L 3169 4134 
L 1269 4134 
L 1269 2991 
Q 1406 3038 1543 3061 
Q 1681 3084 1819 3084 
Q 2600 3084 3056 2656 
Q 3513 2228 3513 1497 
Q 3513 744 3044 326 
Q 2575 -91 1722 -91 
Q 1428 -91 1123 -41 
Q 819 9 494 109 
L 494 744 
Q 775 591 1075 516 
Q 1375 441 1709 441 
Q 2250 441 2565 725 
Q 2881 1009 2881 1497 
Q 2881 1984 2565 2268 
Q 2250 2553 1709 2553 
Q 1456 2553 1204 2497 
Q 953 2441 691 2322 
L 691 4666 
z
" transform="scale(0.015625)"/>
       </defs>
       <use xlink:href="#DejaVuSans-32"/>
       <use xlink:href="#DejaVuSans-2e" transform="translate(63.623047 0)"/>
       <use xlink:href="#DejaVuSans-35" transform="translate(95.410156 0)"/>
      </g>
     </g>
    </g>
    <g id="xtick_3">
     <g id="line2d_5">
      <path d="M 181.158234 346.24 
L 181.158234 41.6 
" clip-path="url(#pd7fae40863)" style="fill: none; stroke: #b0b0b0; stroke-opacity: 0.5; stroke-width: 0.8; stroke-linecap: square"/>
     </g>
     <g id="line2d_6">
      <g>
       <use xlink:href="#m6a9207baf7" x="181.158234" y="346.24" style="stroke: #000000; stroke-width: 0.8"/>
      </g>
     </g>
     <g id="text_3">
      <!-- 5.0 -->
      <g transform="translate(173.206671 360.838437) scale(0.1 -0.1)">
       <use xlink:href="#DejaVuSans-35"/>
       <use xlink:href="#DejaVuSans-2e" transform="translate(63.623047 0)"/>
       <use xlink:href="#DejaVuSans-30" transform="translate(95.410156 0)"/>
      </g>
     </g>
    </g>
    <g id="xtick_4">
     <g id="line2d_7">
      <path d="M 237.061679 346.24 
L 237.061679 41.6 
" clip-path="url(#pd7fae40863)" style="fill: none; stroke: #b0b0b0; stroke-opacity: 0.5; stroke-width: 0.8; stroke-linecap: square"/>
     </g>
     <g id="line2d_8">
      <g>
       <use xlink:href="#m6a9207baf7" x="237.061679" y="346.24" style="stroke: #000000; stroke-width: 0.8"/>
      </g>
     </g>
     <g id="text_4">
      <!-- 7.5 -->
      <g transform="translate(229.110116 360.838437) scale(0.1 -0.1)">
       <defs>
        <path id="DejaVuSans-37" d="M 525 4666 
L 3525 4666 
L 3525 4397 
L 1831 0 
L 1172 0 
L 2766 4134 
L 525 4134 
L 525 4666 
z
" transform="scale(0.015625)"/>
       </defs>
       <use xlink:href="#DejaVuSans-37"/>
       <use xlink:href="#DejaVuSans-2e" transform="translate(63.623047 0)"/>
       <use xlink:href="#DejaVuSans-35" transform="translate(95.410156 0)"/>
      </g>
     </g>
    </g>
    <g id="xtick_5">
     <g id="line2d_9">
      <path d="M 292.965124 346.24 
L 292.965124 41.6 
" clip-path="url(#pd7fae40863)" style="fill: none; stroke: #b0b0b0; stroke-opacity: 0.5; stroke-width: 0.8; stroke-linecap: square"/>
     </g>
     <g id="line2d_10">
      <g>
       <use xlink:href="#m6a9207baf7" x="292.965124" y="346.24" style="stroke: #000000; stroke-width: 0.8"/>
      </g>
     </g>
     <g id="text_5">
      <!-- 10.0 -->
      <g transform="translate(281.832311 360.838437) scale(0.1 -0.1)">
       <defs>
        <path id="DejaVuSans-31" d="M 794 531 
L 1825 531 
L 1825 4091 
L 703 3866 
L 703 4441 
L 1819 4666 
L 2450 4666 
L 2450 531 
L 3481 531 
L 3481 0 
L 794 0 
L 794 531 
z
" transform="scale(0.015625)"/>
       </defs>
       <use xlink:href="#DejaVuSans-31"/>
       <use xlink:href="#DejaVuSans-30" transform="translate(63.623047 0)"/>
       <use xlink:href="#DejaVuSans-2e" transform="translate(127.246094 0)"/>
       <use xlink:href="#DejaVuSans-30" transform="translate(159.033203 0)"/>
      </g>
     </g>
    </g>
    <g id="xtick_6">
     <g id="line2d_11">
      <path d="M 348.868568 346.24 
L 348.868568 41.6 
" clip-path="url(#pd7fae40863)" style="fill: none; stroke: #b0b0b0; stroke-opacity: 0.5; stroke-width: 0.8; stroke-linecap: square"/>
     </g>
     <g id="line2d_12">
      <g>
       <use xlink:href="#m6a9207baf7" x="348.868568" y="346.24" style="stroke: #000000; stroke-width: 0.8"/>
      </g>
     </g>
     <g id="text_6">
      <!-- 12.5 -->
      <g transform="translate(337.735756 360.838437) scale(0.1 -0.1)">
       <use xlink:href="#DejaVuSans-31"/>
       <use xlink:href="#DejaVuSans-32" transform="translate(63.623047 0)"/>
       <use xlink:href="#DejaVuSans-2e" transform="translate(127.246094 0)"/>
       <use xlink:href="#DejaVuSans-35" transform="translate(159.033203 0)"/>
      </g>
     </g>
    </g>
    <g id="xtick_7">
     <g id="line2d_13">
      <path d="M 404.772013 346.24 
L 404.772013 41.6 
" clip-path="url(#pd7fae40863)" style="fill: none; stroke: #b0b0b0; stroke-opacity: 0.5; stroke-width: 0.8; stroke-linecap: square"/>
     </g>
     <g id="line2d_14">
      <g>
       <use xlink:href="#m6a9207baf7" x="404.772013" y="346.24" style="stroke: #000000; stroke-width: 0.8"/>
      </g>
     </g>
     <g id="text_7">
      <!-- 15.0 -->
      <g transform="translate(393.639201 360.838437) scale(0.1 -0.1)">
       <use xlink:href="#DejaVuSans-31"/>
       <use xlink:href="#DejaVuSans-35" transform="translate(63.623047 0)"/>
       <use xlink:href="#DejaVuSans-2e" transform="translate(127.246094 0)"/>
       <use xlink:href="#DejaVuSans-30" transform="translate(159.033203 0)"/>
      </g>
     </g>
    </g>
    <g id="xtick_8">
     <g id="line2d_15">
      <path d="M 460.675458 346.24 
L 460.675458 41.6 
" clip-path="url(#pd7fae40863)" style="fill: none; stroke: #b0b0b0; stroke-opacity: 0.5; stroke-width: 0.8; stroke-linecap: square"/>
     </g>
     <g id="line2d_16">
      <g>
       <use xlink:href="#m6a9207baf7" x="460.675458" y="346.24" style="stroke: #000000; stroke-width: 0.8"/>
      </g>
     </g>
     <g id="text_8">
      <!-- 17.5 -->
      <g transform="translate(449.542646 360.838437) scale(0.1 -0.1)">
       <use xlink:href="#DejaVuSans-31"/>
       <use xlink:href="#DejaVuSans-37" transform="translate(63.623047 0)"/>
       <use xlink:href="#DejaVuSans-2e" transform="translate(127.246094 0)"/>
       <use xlink:href="#DejaVuSans-35" transform="translate(159.033203 0)"/>
      </g>
     </g>
    </g>
    <g id="xtick_9">
     <g id="line2d_17">
      <path d="M 516.578903 346.24 
L 516.578903 41.6 
" clip-path="url(#pd7fae40863)" style="fill: none; stroke: #b0b0b0; stroke-opacity: 0.5; stroke-width: 0.8; stroke-linecap: square"/>
     </g>
     <g id="line2d_18">
      <g>
       <use xlink:href="#m6a9207baf7" x="516.578903" y="346.24" style="stroke: #000000; stroke-width: 0.8"/>
      </g>
     </g>
     <g id="text_9">
      <!-- 20.0 -->
      <g transform="translate(505.446091 360.838437) scale(0.1 -0.1)">
       <use xlink:href="#DejaVuSans-32"/>
       <use xlink:href="#DejaVuSans-30" transform="translate(63.623047 0)"/>
       <use xlink:href="#DejaVuSans-2e" transform="translate(127.246094 0)"/>
       <use xlink:href="#DejaVuSans-30" transform="translate(159.033203 0)"/>
      </g>
     </g>
    </g>
    <g id="text_10">
     <!-- Rate [MB] -->
     <g transform="translate(258.682339 382.03625) scale(0.12 -0.12)">
      <defs>
       <path id="DejaVuSans-Bold-52" d="M 2297 2597 
Q 2675 2597 2839 2737 
Q 3003 2878 3003 3200 
Q 3003 3519 2839 3656 
Q 2675 3794 2297 3794 
L 1791 3794 
L 1791 2597 
L 2297 2597 
z
M 1791 1766 
L 1791 0 
L 588 0 
L 588 4666 
L 2425 4666 
Q 3347 4666 3776 4356 
Q 4206 4047 4206 3378 
Q 4206 2916 3982 2619 
Q 3759 2322 3309 2181 
Q 3556 2125 3751 1926 
Q 3947 1728 4147 1325 
L 4800 0 
L 3519 0 
L 2950 1159 
Q 2778 1509 2601 1637 
Q 2425 1766 2131 1766 
L 1791 1766 
z
" transform="scale(0.015625)"/>
       <path id="DejaVuSans-Bold-61" d="M 2106 1575 
Q 1756 1575 1579 1456 
Q 1403 1338 1403 1106 
Q 1403 894 1545 773 
Q 1688 653 1941 653 
Q 2256 653 2472 879 
Q 2688 1106 2688 1447 
L 2688 1575 
L 2106 1575 
z
M 3816 1997 
L 3816 0 
L 2688 0 
L 2688 519 
Q 2463 200 2181 54 
Q 1900 -91 1497 -91 
Q 953 -91 614 226 
Q 275 544 275 1050 
Q 275 1666 698 1953 
Q 1122 2241 2028 2241 
L 2688 2241 
L 2688 2328 
Q 2688 2594 2478 2717 
Q 2269 2841 1825 2841 
Q 1466 2841 1156 2769 
Q 847 2697 581 2553 
L 581 3406 
Q 941 3494 1303 3539 
Q 1666 3584 2028 3584 
Q 2975 3584 3395 3211 
Q 3816 2838 3816 1997 
z
" transform="scale(0.015625)"/>
       <path id="DejaVuSans-Bold-74" d="M 1759 4494 
L 1759 3500 
L 2913 3500 
L 2913 2700 
L 1759 2700 
L 1759 1216 
Q 1759 972 1856 886 
Q 1953 800 2241 800 
L 2816 800 
L 2816 0 
L 1856 0 
Q 1194 0 917 276 
Q 641 553 641 1216 
L 641 2700 
L 84 2700 
L 84 3500 
L 641 3500 
L 641 4494 
L 1759 4494 
z
" transform="scale(0.015625)"/>
       <path id="DejaVuSans-Bold-65" d="M 4031 1759 
L 4031 1441 
L 1416 1441 
Q 1456 1047 1700 850 
Q 1944 653 2381 653 
Q 2734 653 3104 758 
Q 3475 863 3866 1075 
L 3866 213 
Q 3469 63 3072 -14 
Q 2675 -91 2278 -91 
Q 1328 -91 801 392 
Q 275 875 275 1747 
Q 275 2603 792 3093 
Q 1309 3584 2216 3584 
Q 3041 3584 3536 3087 
Q 4031 2591 4031 1759 
z
M 2881 2131 
Q 2881 2450 2695 2645 
Q 2509 2841 2209 2841 
Q 1884 2841 1681 2658 
Q 1478 2475 1428 2131 
L 2881 2131 
z
" transform="scale(0.015625)"/>
       <path id="DejaVuSans-Bold-20" transform="scale(0.015625)"/>
       <path id="DejaVuSans-Bold-5b" d="M 550 4863 
L 2491 4863 
L 2491 4159 
L 1613 4159 
L 1613 -141 
L 2491 -141 
L 2491 -844 
L 550 -844 
L 550 4863 
z
" transform="scale(0.015625)"/>
       <path id="DejaVuSans-Bold-4d" d="M 588 4666 
L 2119 4666 
L 3181 2169 
L 4250 4666 
L 5778 4666 
L 5778 0 
L 4641 0 
L 4641 3413 
L 3566 897 
L 2803 897 
L 1728 3413 
L 1728 0 
L 588 0 
L 588 4666 
z
" transform="scale(0.015625)"/>
       <path id="DejaVuSans-Bold-42" d="M 2456 2859 
Q 2741 2859 2887 2984 
Q 3034 3109 3034 3353 
Q 3034 3594 2887 3720 
Q 2741 3847 2456 3847 
L 1791 3847 
L 1791 2859 
L 2456 2859 
z
M 2497 819 
Q 2859 819 3042 972 
Q 3225 1125 3225 1434 
Q 3225 1738 3044 1889 
Q 2863 2041 2497 2041 
L 1791 2041 
L 1791 819 
L 2497 819 
z
M 3616 2497 
Q 4003 2384 4215 2081 
Q 4428 1778 4428 1338 
Q 4428 663 3972 331 
Q 3516 0 2584 0 
L 588 0 
L 588 4666 
L 2394 4666 
Q 3366 4666 3802 4372 
Q 4238 4078 4238 3431 
Q 4238 3091 4078 2852 
Q 3919 2613 3616 2497 
z
" transform="scale(0.015625)"/>
       <path id="DejaVuSans-Bold-5d" d="M 2375 -844 
L 434 -844 
L 434 -141 
L 1313 -141 
L 1313 4159 
L 434 4159 
L 434 4863 
L 2375 4863 
L 2375 -844 
z
" transform="scale(0.015625)"/>
      </defs>
      <use xlink:href="#DejaVuSans-Bold-52"/>
      <use xlink:href="#DejaVuSans-Bold-61" transform="translate(77.001953 0)"/>
      <use xlink:href="#DejaVuSans-Bold-74" transform="translate(144.482422 0)"/>
      <use xlink:href="#DejaVuSans-Bold-65" transform="translate(192.285156 0)"/>
      <use xlink:href="#DejaVuSans-Bold-20" transform="translate(260.107422 0)"/>
      <use xlink:href="#DejaVuSans-Bold-5b" transform="translate(294.921875 0)"/>
      <use xlink:href="#DejaVuSans-Bold-4d" transform="translate(340.625 0)"/>
      <use xlink:href="#DejaVuSans-Bold-42" transform="translate(440.136719 0)"/>
      <use xlink:href="#DejaVuSans-Bold-5d" transform="translate(516.357422 0)"/>
     </g>
    </g>
   </g>
   <g id="matplotlib.axis_2">
    <g id="ytick_1">
     <g id="line2d_19">
      <path d="M 55.655 307.237368 
L 529.157178 307.237368 
" clip-path="url(#pd7fae40863)" style="fill: none; stroke: #b0b0b0; stroke-opacity: 0.5; stroke-width: 0.8; stroke-linecap: square"/>
     </g>
     <g id="line2d_20">
      <defs>
       <path id="m4f1052910b" d="M 0 0 
L -3.5 0 
" style="stroke: #000000; stroke-width: 0.8"/>
      </defs>
      <g>
       <use xlink:href="#m4f1052910b" x="55.655" y="307.237368" style="stroke: #000000; stroke-width: 0.8"/>
      </g>
     </g>
     <g id="text_11">
      <!-- 2.5 -->
      <g transform="translate(32.751875 311.036586) scale(0.1 -0.1)">
       <use xlink:href="#DejaVuSans-32"/>
       <use xlink:href="#DejaVuSans-2e" transform="translate(63.623047 0)"/>
       <use xlink:href="#DejaVuSans-35" transform="translate(95.410156 0)"/>
      </g>
     </g>
    </g>
    <g id="ytick_2">
     <g id="line2d_21">
      <path d="M 55.655 266.692277 
L 529.157178 266.692277 
" clip-path="url(#pd7fae40863)" style="fill: none; stroke: #b0b0b0; stroke-opacity: 0.5; stroke-width: 0.8; stroke-linecap: square"/>
     </g>
     <g id="line2d_22">
      <g>
       <use xlink:href="#m4f1052910b" x="55.655" y="266.692277" style="stroke: #000000; stroke-width: 0.8"/>
      </g>
     </g>
     <g id="text_12">
      <!-- 3.0 -->
      <g transform="translate(32.751875 270.491496) scale(0.1 -0.1)">
       <defs>
        <path id="DejaVuSans-33" d="M 2597 2516 
Q 3050 2419 3304 2112 
Q 3559 1806 3559 1356 
Q 3559 666 3084 287 
Q 2609 -91 1734 -91 
Q 1441 -91 1130 -33 
Q 819 25 488 141 
L 488 750 
Q 750 597 1062 519 
Q 1375 441 1716 441 
Q 2309 441 2620 675 
Q 2931 909 2931 1356 
Q 2931 1769 2642 2001 
Q 2353 2234 1838 2234 
L 1294 2234 
L 1294 2753 
L 1863 2753 
Q 2328 2753 2575 2939 
Q 2822 3125 2822 3475 
Q 2822 3834 2567 4026 
Q 2313 4219 1838 4219 
Q 1578 4219 1281 4162 
Q 984 4106 628 3988 
L 628 4550 
Q 988 4650 1302 4700 
Q 1616 4750 1894 4750 
Q 2613 4750 3031 4423 
Q 3450 4097 3450 3541 
Q 3450 3153 3228 2886 
Q 3006 2619 2597 2516 
z
" transform="scale(0.015625)"/>
       </defs>
       <use xlink:href="#DejaVuSans-33"/>
       <use xlink:href="#DejaVuSans-2e" transform="translate(63.623047 0)"/>
       <use xlink:href="#DejaVuSans-30" transform="translate(95.410156 0)"/>
      </g>
     </g>
    </g>
    <g id="ytick_3">
     <g id="line2d_23">
      <path d="M 55.655 226.147187 
L 529.157178 226.147187 
" clip-path="url(#pd7fae40863)" style="fill: none; stroke: #b0b0b0; stroke-opacity: 0.5; stroke-width: 0.8; stroke-linecap: square"/>
     </g>
     <g id="line2d_24">
      <g>
       <use xlink:href="#m4f1052910b" x="55.655" y="226.147187" style="stroke: #000000; stroke-width: 0.8"/>
      </g>
     </g>
     <g id="text_13">
      <!-- 3.5 -->
      <g transform="translate(32.751875 229.946406) scale(0.1 -0.1)">
       <use xlink:href="#DejaVuSans-33"/>
       <use xlink:href="#DejaVuSans-2e" transform="translate(63.623047 0)"/>
       <use xlink:href="#DejaVuSans-35" transform="translate(95.410156 0)"/>
      </g>
     </g>
    </g>
    <g id="ytick_4">
     <g id="line2d_25">
      <path d="M 55.655 185.602097 
L 529.157178 185.602097 
" clip-path="url(#pd7fae40863)" style="fill: none; stroke: #b0b0b0; stroke-opacity: 0.5; stroke-width: 0.8; stroke-linecap: square"/>
     </g>
     <g id="line2d_26">
      <g>
       <use xlink:href="#m4f1052910b" x="55.655" y="185.602097" style="stroke: #000000; stroke-width: 0.8"/>
      </g>
     </g>
     <g id="text_14">
      <!-- 4.0 -->
      <g transform="translate(32.751875 189.401315) scale(0.1 -0.1)">
       <defs>
        <path id="DejaVuSans-34" d="M 2419 4116 
L 825 1625 
L 2419 1625 
L 2419 4116 
z
M 2253 4666 
L 3047 4666 
L 3047 1625 
L 3713 1625 
L 3713 1100 
L 3047 1100 
L 3047 0 
L 2419 0 
L 2419 1100 
L 313 1100 
L 313 1709 
L 2253 4666 
z
" transform="scale(0.015625)"/>
       </defs>
       <use xlink:href="#DejaVuSans-34"/>
       <use xlink:href="#DejaVuSans-2e" transform="translate(63.623047 0)"/>
       <use xlink:href="#DejaVuSans-30" transform="translate(95.410156 0)"/>
      </g>
     </g>
    </g>
    <g id="ytick_5">
     <g id="line2d_27">
      <path d="M 55.655 145.057006 
L 529.157178 145.057006 
" clip-path="url(#pd7fae40863)" style="fill: none; stroke: #b0b0b0; stroke-opacity: 0.5; stroke-width: 0.8; stroke-linecap: square"/>
     </g>
     <g id="line2d_28">
      <g>
       <use xlink:href="#m4f1052910b" x="55.655" y="145.057006" style="stroke: #000000; stroke-width: 0.8"/>
      </g>
     </g>
     <g id="text_15">
      <!-- 4.5 -->
      <g transform="translate(32.751875 148.856225) scale(0.1 -0.1)">
       <use xlink:href="#DejaVuSans-34"/>
       <use xlink:href="#DejaVuSans-2e" transform="translate(63.623047 0)"/>
       <use xlink:href="#DejaVuSans-35" transform="translate(95.410156 0)"/>
      </g>
     </g>
    </g>
    <g id="ytick_6">
     <g id="line2d_29">
      <path d="M 55.655 104.511916 
L 529.157178 104.511916 
" clip-path="url(#pd7fae40863)" style="fill: none; stroke: #b0b0b0; stroke-opacity: 0.5; stroke-width: 0.8; stroke-linecap: square"/>
     </g>
     <g id="line2d_30">
      <g>
       <use xlink:href="#m4f1052910b" x="55.655" y="104.511916" style="stroke: #000000; stroke-width: 0.8"/>
      </g>
     </g>
     <g id="text_16">
      <!-- 5.0 -->
      <g transform="translate(32.751875 108.311135) scale(0.1 -0.1)">
       <use xlink:href="#DejaVuSans-35"/>
       <use xlink:href="#DejaVuSans-2e" transform="translate(63.623047 0)"/>
       <use xlink:href="#DejaVuSans-30" transform="translate(95.410156 0)"/>
      </g>
     </g>
    </g>
    <g id="ytick_7">
     <g id="line2d_31">
      <path d="M 55.655 63.966825 
L 529.157178 63.966825 
" clip-path="url(#pd7fae40863)" style="fill: none; stroke: #b0b0b0; stroke-opacity: 0.5; stroke-width: 0.8; stroke-linecap: square"/>
     </g>
     <g id="line2d_32">
      <g>
       <use xlink:href="#m4f1052910b" x="55.655" y="63.966825" style="stroke: #000000; stroke-width: 0.8"/>
      </g>
     </g>
     <g id="text_17">
      <!-- 5.5 -->
      <g transform="translate(32.751875 67.766044) scale(0.1 -0.1)">
       <use xlink:href="#DejaVuSans-35"/>
       <use xlink:href="#DejaVuSans-2e" transform="translate(63.623047 0)"/>
       <use xlink:href="#DejaVuSans-35" transform="translate(95.410156 0)"/>
      </g>
     </g>
    </g>
    <g id="text_18">
     <!-- DMOS -->
     <g transform="translate(20.25625 214.29375) rotate(-90) scale(0.12 -0.12)">
      <defs>
       <path id="DejaVuSans-Bold-44" d="M 1791 3756 
L 1791 909 
L 2222 909 
Q 2959 909 3348 1275 
Q 3738 1641 3738 2338 
Q 3738 3031 3350 3393 
Q 2963 3756 2222 3756 
L 1791 3756 
z
M 588 4666 
L 1856 4666 
Q 2919 4666 3439 4514 
Q 3959 4363 4331 4000 
Q 4659 3684 4818 3271 
Q 4978 2859 4978 2338 
Q 4978 1809 4818 1395 
Q 4659 981 4331 666 
Q 3956 303 3431 151 
Q 2906 0 1856 0 
L 588 0 
L 588 4666 
z
" transform="scale(0.015625)"/>
       <path id="DejaVuSans-Bold-4f" d="M 2719 3878 
Q 2169 3878 1866 3472 
Q 1563 3066 1563 2328 
Q 1563 1594 1866 1187 
Q 2169 781 2719 781 
Q 3272 781 3575 1187 
Q 3878 1594 3878 2328 
Q 3878 3066 3575 3472 
Q 3272 3878 2719 3878 
z
M 2719 4750 
Q 3844 4750 4481 4106 
Q 5119 3463 5119 2328 
Q 5119 1197 4481 553 
Q 3844 -91 2719 -91 
Q 1597 -91 958 553 
Q 319 1197 319 2328 
Q 319 3463 958 4106 
Q 1597 4750 2719 4750 
z
" transform="scale(0.015625)"/>
       <path id="DejaVuSans-Bold-53" d="M 3834 4519 
L 3834 3531 
Q 3450 3703 3084 3790 
Q 2719 3878 2394 3878 
Q 1963 3878 1756 3759 
Q 1550 3641 1550 3391 
Q 1550 3203 1689 3098 
Q 1828 2994 2194 2919 
L 2706 2816 
Q 3484 2659 3812 2340 
Q 4141 2022 4141 1434 
Q 4141 663 3683 286 
Q 3225 -91 2284 -91 
Q 1841 -91 1394 -6 
Q 947 78 500 244 
L 500 1259 
Q 947 1022 1364 901 
Q 1781 781 2169 781 
Q 2563 781 2772 912 
Q 2981 1044 2981 1288 
Q 2981 1506 2839 1625 
Q 2697 1744 2272 1838 
L 1806 1941 
Q 1106 2091 782 2419 
Q 459 2747 459 3303 
Q 459 4000 909 4375 
Q 1359 4750 2203 4750 
Q 2588 4750 2994 4692 
Q 3400 4634 3834 4519 
z
" transform="scale(0.015625)"/>
      </defs>
      <use xlink:href="#DejaVuSans-Bold-44"/>
      <use xlink:href="#DejaVuSans-Bold-4d" transform="translate(83.007812 0)"/>
      <use xlink:href="#DejaVuSans-Bold-4f" transform="translate(182.519531 0)"/>
      <use xlink:href="#DejaVuSans-Bold-53" transform="translate(267.529297 0)"/>
     </g>
    </g>
   </g>
   <g id="LineCollection_1">
    <path d="M 310.183385 222.62039 
L 310.183385 176.003096 
" clip-path="url(#pd7fae40863)" style="fill: none; stroke: #ffa500; stroke-opacity: 0.3; stroke-width: 1.5"/>
    <path d="M 332.768376 155.548878 
L 332.768376 118.41197 
" clip-path="url(#pd7fae40863)" style="fill: none; stroke: #ffa500; stroke-opacity: 0.3; stroke-width: 1.5"/>
    <path d="M 356.695051 116.126191 
L 356.695051 83.945285 
" clip-path="url(#pd7fae40863)" style="fill: none; stroke: #ffa500; stroke-opacity: 0.3; stroke-width: 1.5"/>
   </g>
   <g id="line2d_33">
    <defs>
     <path id="mc4a5dc9b2f" d="M 4 0 
L -4 -0 
" style="stroke: #ffa500; stroke-opacity: 0.3"/>
    </defs>
    <g clip-path="url(#pd7fae40863)">
     <use xlink:href="#mc4a5dc9b2f" x="310.183385" y="222.62039" style="fill: #1f77b4; fill-opacity: 0.3; stroke: #ffa500; stroke-opacity: 0.3"/>
     <use xlink:href="#mc4a5dc9b2f" x="332.768376" y="155.548878" style="fill: #1f77b4; fill-opacity: 0.3; stroke: #ffa500; stroke-opacity: 0.3"/>
     <use xlink:href="#mc4a5dc9b2f" x="356.695051" y="116.126191" style="fill: #1f77b4; fill-opacity: 0.3; stroke: #ffa500; stroke-opacity: 0.3"/>
    </g>
   </g>
   <g id="line2d_34">
    <g clip-path="url(#pd7fae40863)">
     <use xlink:href="#mc4a5dc9b2f" x="310.183385" y="176.003096" style="fill: #1f77b4; fill-opacity: 0.3; stroke: #ffa500; stroke-opacity: 0.3"/>
     <use xlink:href="#mc4a5dc9b2f" x="332.768376" y="118.41197" style="fill: #1f77b4; fill-opacity: 0.3; stroke: #ffa500; stroke-opacity: 0.3"/>
     <use xlink:href="#mc4a5dc9b2f" x="356.695051" y="83.945285" style="fill: #1f77b4; fill-opacity: 0.3; stroke: #ffa500; stroke-opacity: 0.3"/>
    </g>
   </g>
   <g id="line2d_35">
    <path d="M 310.183385 199.311743 
L 332.768376 136.980424 
L 356.695051 100.035738 
" clip-path="url(#pd7fae40863)" style="fill: none; stroke: #ffa500; stroke-width: 1.5; stroke-linecap: square"/>
    <defs>
     <path id="m636b120690" d="M -0 3.5 
L 3.5 -3.5 
L -3.5 -3.5 
z
" style="stroke: #ffa500; stroke-linejoin: miter"/>
    </defs>
    <g clip-path="url(#pd7fae40863)">
     <use xlink:href="#m636b120690" x="310.183385" y="199.311743" style="fill: #ffa500; stroke: #ffa500; stroke-linejoin: miter"/>
     <use xlink:href="#m636b120690" x="332.768376" y="136.980424" style="fill: #ffa500; stroke: #ffa500; stroke-linejoin: miter"/>
     <use xlink:href="#m636b120690" x="356.695051" y="100.035738" style="fill: #ffa500; stroke: #ffa500; stroke-linejoin: miter"/>
    </g>
   </g>
   <g id="LineCollection_2">
    <path d="M 93.278018 277.349887 
L 93.278018 220.127936 
" clip-path="url(#pd7fae40863)" style="fill: none; stroke: #808080; stroke-opacity: 0.3; stroke-width: 1.5"/>
    <path d="M 108.930983 214.164011 
L 108.930983 141.265439 
" clip-path="url(#pd7fae40863)" style="fill: none; stroke: #808080; stroke-opacity: 0.3; stroke-width: 1.5"/>
    <path d="M 276.641318 116.844626 
L 276.641318 65.347366 
" clip-path="url(#pd7fae40863)" style="fill: none; stroke: #808080; stroke-opacity: 0.3; stroke-width: 1.5"/>
   </g>
   <g id="line2d_36">
    <defs>
     <path id="m7bd3ddb6cd" d="M 4 0 
L -4 -0 
" style="stroke: #808080; stroke-opacity: 0.3"/>
    </defs>
    <g clip-path="url(#pd7fae40863)">
     <use xlink:href="#m7bd3ddb6cd" x="93.278018" y="277.349887" style="fill: #1f77b4; fill-opacity: 0.3; stroke: #808080; stroke-opacity: 0.3"/>
     <use xlink:href="#m7bd3ddb6cd" x="108.930983" y="214.164011" style="fill: #1f77b4; fill-opacity: 0.3; stroke: #808080; stroke-opacity: 0.3"/>
     <use xlink:href="#m7bd3ddb6cd" x="276.641318" y="116.844626" style="fill: #1f77b4; fill-opacity: 0.3; stroke: #808080; stroke-opacity: 0.3"/>
    </g>
   </g>
   <g id="line2d_37">
    <g clip-path="url(#pd7fae40863)">
     <use xlink:href="#m7bd3ddb6cd" x="93.278018" y="220.127936" style="fill: #1f77b4; fill-opacity: 0.3; stroke: #808080; stroke-opacity: 0.3"/>
     <use xlink:href="#m7bd3ddb6cd" x="108.930983" y="141.265439" style="fill: #1f77b4; fill-opacity: 0.3; stroke: #808080; stroke-opacity: 0.3"/>
     <use xlink:href="#m7bd3ddb6cd" x="276.641318" y="65.347366" style="fill: #1f77b4; fill-opacity: 0.3; stroke: #808080; stroke-opacity: 0.3"/>
    </g>
   </g>
   <g id="line2d_38">
    <path d="M 93.278018 248.738911 
L 108.930983 177.714725 
L 276.641318 91.095996 
" clip-path="url(#pd7fae40863)" style="fill: none; stroke: #808080; stroke-width: 1.5; stroke-linecap: square"/>
    <defs>
     <path id="m3d901dfb28" d="M 0 -3.5 
L -3.5 3.5 
L 3.5 3.5 
z
" style="stroke: #808080; stroke-linejoin: miter"/>
    </defs>
    <g clip-path="url(#pd7fae40863)">
     <use xlink:href="#m3d901dfb28" x="93.278018" y="248.738911" style="fill: #808080; stroke: #808080; stroke-linejoin: miter"/>
     <use xlink:href="#m3d901dfb28" x="108.930983" y="177.714725" style="fill: #808080; stroke: #808080; stroke-linejoin: miter"/>
     <use xlink:href="#m3d901dfb28" x="276.641318" y="91.095996" style="fill: #808080; stroke: #808080; stroke-linejoin: miter"/>
    </g>
   </g>
   <g id="LineCollection_3">
    <path d="M 386.882911 110.833673 
L 386.882911 84.040823 
" clip-path="url(#pd7fae40863)" style="fill: none; stroke: #008080; stroke-opacity: 0.3; stroke-width: 1.5"/>
   </g>
   <g id="line2d_39">
    <defs>
     <path id="m14092546e5" d="M 4 0 
L -4 -0 
" style="stroke: #008080; stroke-opacity: 0.3"/>
    </defs>
    <g clip-path="url(#pd7fae40863)">
     <use xlink:href="#m14092546e5" x="386.882911" y="110.833673" style="fill: #1f77b4; fill-opacity: 0.3; stroke: #008080; stroke-opacity: 0.3"/>
    </g>
   </g>
   <g id="line2d_40">
    <g clip-path="url(#pd7fae40863)">
     <use xlink:href="#m14092546e5" x="386.882911" y="84.040823" style="fill: #1f77b4; fill-opacity: 0.3; stroke: #008080; stroke-opacity: 0.3"/>
    </g>
   </g>
   <g id="line2d_41">
    <path d="M 386.882911 97.437248 
" clip-path="url(#pd7fae40863)" style="fill: none; stroke: #008080; stroke-width: 1.5; stroke-linecap: square"/>
    <defs>
     <path id="m32d5a48127" d="M -1.166667 3.5 
L 1.166667 3.5 
L 1.166667 1.166667 
L 3.5 1.166667 
L 3.5 -1.166667 
L 1.166667 -1.166667 
L 1.166667 -3.5 
L -1.166667 -3.5 
L -1.166667 -1.166667 
L -3.5 -1.166667 
L -3.5 1.166667 
L -1.166667 1.166667 
z
" style="stroke: #008080; stroke-linejoin: miter"/>
    </defs>
    <g clip-path="url(#pd7fae40863)">
     <use xlink:href="#m32d5a48127" x="386.882911" y="97.437248" style="fill: #008080; stroke: #008080; stroke-linejoin: miter"/>
    </g>
   </g>
   <g id="LineCollection_4">
    <path d="M 236.838065 218.622397 
L 236.838065 162.990172 
" clip-path="url(#pd7fae40863)" style="fill: none; stroke: #dc143c; stroke-opacity: 0.3; stroke-width: 1.5"/>
    <path d="M 246.453457 128.567078 
L 246.453457 87.077316 
" clip-path="url(#pd7fae40863)" style="fill: none; stroke: #dc143c; stroke-opacity: 0.3; stroke-width: 1.5"/>
    <path d="M 313.090364 97.173833 
L 313.090364 55.447273 
" clip-path="url(#pd7fae40863)" style="fill: none; stroke: #dc143c; stroke-opacity: 0.3; stroke-width: 1.5"/>
   </g>
   <g id="line2d_42">
    <defs>
     <path id="m580463f531" d="M 4 0 
L -4 -0 
" style="stroke: #dc143c; stroke-opacity: 0.3"/>
    </defs>
    <g clip-path="url(#pd7fae40863)">
     <use xlink:href="#m580463f531" x="236.838065" y="218.622397" style="fill: #1f77b4; fill-opacity: 0.3; stroke: #dc143c; stroke-opacity: 0.3"/>
     <use xlink:href="#m580463f531" x="246.453457" y="128.567078" style="fill: #1f77b4; fill-opacity: 0.3; stroke: #dc143c; stroke-opacity: 0.3"/>
     <use xlink:href="#m580463f531" x="313.090364" y="97.173833" style="fill: #1f77b4; fill-opacity: 0.3; stroke: #dc143c; stroke-opacity: 0.3"/>
    </g>
   </g>
   <g id="line2d_43">
    <g clip-path="url(#pd7fae40863)">
     <use xlink:href="#m580463f531" x="236.838065" y="162.990172" style="fill: #1f77b4; fill-opacity: 0.3; stroke: #dc143c; stroke-opacity: 0.3"/>
     <use xlink:href="#m580463f531" x="246.453457" y="87.077316" style="fill: #1f77b4; fill-opacity: 0.3; stroke: #dc143c; stroke-opacity: 0.3"/>
     <use xlink:href="#m580463f531" x="313.090364" y="55.447273" style="fill: #1f77b4; fill-opacity: 0.3; stroke: #dc143c; stroke-opacity: 0.3"/>
    </g>
   </g>
   <g id="line2d_44">
    <path d="M 236.838065 190.806284 
L 246.453457 107.822197 
L 313.090364 76.310553 
" clip-path="url(#pd7fae40863)" style="fill: none; stroke: #dc143c; stroke-width: 1.5; stroke-linecap: square"/>
    <defs>
     <path id="m60d52e6993" d="M 0 3.5 
C 0.928211 3.5 1.81853 3.131218 2.474874 2.474874 
C 3.131218 1.81853 3.5 0.928211 3.5 0 
C 3.5 -0.928211 3.131218 -1.81853 2.474874 -2.474874 
C 1.81853 -3.131218 0.928211 -3.5 0 -3.5 
C -0.928211 -3.5 -1.81853 -3.131218 -2.474874 -2.474874 
C -3.131218 -1.81853 -3.5 -0.928211 -3.5 0 
C -3.5 0.928211 -3.131218 1.81853 -2.474874 2.474874 
C -1.81853 3.131218 -0.928211 3.5 0 3.5 
z
" style="stroke: #dc143c"/>
    </defs>
    <g clip-path="url(#pd7fae40863)">
     <use xlink:href="#m60d52e6993" x="236.838065" y="190.806284" style="fill: #dc143c; stroke: #dc143c"/>
     <use xlink:href="#m60d52e6993" x="246.453457" y="107.822197" style="fill: #dc143c; stroke: #dc143c"/>
     <use xlink:href="#m60d52e6993" x="313.090364" y="76.310553" style="fill: #dc143c; stroke: #dc143c"/>
    </g>
   </g>
   <g id="LineCollection_5">
    <path d="M 171.990069 319.197437 
L 171.990069 246.961967 
" clip-path="url(#pd7fae40863)" style="fill: none; stroke: #000000; stroke-opacity: 0.3; stroke-width: 1.5"/>
    <path d="M 205.979363 208.413982 
L 205.979363 158.450985 
" clip-path="url(#pd7fae40863)" style="fill: none; stroke: #000000; stroke-opacity: 0.3; stroke-width: 1.5"/>
    <path d="M 267.249539 105.75915 
L 267.249539 55.612488 
" clip-path="url(#pd7fae40863)" style="fill: none; stroke: #000000; stroke-opacity: 0.3; stroke-width: 1.5"/>
   </g>
   <g id="line2d_45">
    <defs>
     <path id="m0ce1e4786a" d="M 4 0 
L -4 -0 
" style="stroke: #000000; stroke-opacity: 0.3"/>
    </defs>
    <g clip-path="url(#pd7fae40863)">
     <use xlink:href="#m0ce1e4786a" x="171.990069" y="319.197437" style="fill: #1f77b4; fill-opacity: 0.3; stroke: #000000; stroke-opacity: 0.3"/>
     <use xlink:href="#m0ce1e4786a" x="205.979363" y="208.413982" style="fill: #1f77b4; fill-opacity: 0.3; stroke: #000000; stroke-opacity: 0.3"/>
     <use xlink:href="#m0ce1e4786a" x="267.249539" y="105.75915" style="fill: #1f77b4; fill-opacity: 0.3; stroke: #000000; stroke-opacity: 0.3"/>
    </g>
   </g>
   <g id="line2d_46">
    <g clip-path="url(#pd7fae40863)">
     <use xlink:href="#m0ce1e4786a" x="171.990069" y="246.961967" style="fill: #1f77b4; fill-opacity: 0.3; stroke: #000000; stroke-opacity: 0.3"/>
     <use xlink:href="#m0ce1e4786a" x="205.979363" y="158.450985" style="fill: #1f77b4; fill-opacity: 0.3; stroke: #000000; stroke-opacity: 0.3"/>
     <use xlink:href="#m0ce1e4786a" x="267.249539" y="55.612488" style="fill: #1f77b4; fill-opacity: 0.3; stroke: #000000; stroke-opacity: 0.3"/>
    </g>
   </g>
   <g id="line2d_47">
    <path d="M 171.990069 283.079702 
L 205.979363 183.432484 
L 267.249539 80.685819 
" clip-path="url(#pd7fae40863)" style="fill: none; stroke: #000000; stroke-width: 1.5; stroke-linecap: square"/>
    <defs>
     <path id="m60d2993e0d" d="M 0 3.5 
C 0.928211 3.5 1.81853 3.131218 2.474874 2.474874 
C 3.131218 1.81853 3.5 0.928211 3.5 0 
C 3.5 -0.928211 3.131218 -1.81853 2.474874 -2.474874 
C 1.81853 -3.131218 0.928211 -3.5 0 -3.5 
C -0.928211 -3.5 -1.81853 -3.131218 -2.474874 -2.474874 
C -3.131218 -1.81853 -3.5 -0.928211 -3.5 0 
C -3.5 0.928211 -3.131218 1.81853 -2.474874 2.474874 
C -1.81853 3.131218 -0.928211 3.5 0 3.5 
z
" style="stroke: #000000"/>
    </defs>
    <g clip-path="url(#pd7fae40863)">
     <use xlink:href="#m60d2993e0d" x="171.990069" y="283.079702" style="stroke: #000000"/>
     <use xlink:href="#m60d2993e0d" x="205.979363" y="183.432484" style="stroke: #000000"/>
     <use xlink:href="#m60d2993e0d" x="267.249539" y="80.685819" style="stroke: #000000"/>
    </g>
   </g>
   <g id="LineCollection_6">
    <path d="M 77.177826 269.991036 
L 77.177826 185.91095 
" clip-path="url(#pd7fae40863)" style="fill: none; stroke: #ff69b4; stroke-opacity: 0.3; stroke-width: 1.5"/>
    <path d="M 85.227922 221.986915 
L 85.227922 175.980642 
" clip-path="url(#pd7fae40863)" style="fill: none; stroke: #ff69b4; stroke-opacity: 0.3; stroke-width: 1.5"/>
    <path d="M 174.44982 113.763355 
L 174.44982 73.423792 
" clip-path="url(#pd7fae40863)" style="fill: none; stroke: #ff69b4; stroke-opacity: 0.3; stroke-width: 1.5"/>
   </g>
   <g id="line2d_48">
    <defs>
     <path id="mc13cbb6504" d="M 4 0 
L -4 -0 
" style="stroke: #ff69b4; stroke-opacity: 0.3"/>
    </defs>
    <g clip-path="url(#pd7fae40863)">
     <use xlink:href="#mc13cbb6504" x="77.177826" y="269.991036" style="fill: #1f77b4; fill-opacity: 0.3; stroke: #ff69b4; stroke-opacity: 0.3"/>
     <use xlink:href="#mc13cbb6504" x="85.227922" y="221.986915" style="fill: #1f77b4; fill-opacity: 0.3; stroke: #ff69b4; stroke-opacity: 0.3"/>
     <use xlink:href="#mc13cbb6504" x="174.44982" y="113.763355" style="fill: #1f77b4; fill-opacity: 0.3; stroke: #ff69b4; stroke-opacity: 0.3"/>
    </g>
   </g>
   <g id="line2d_49">
    <g clip-path="url(#pd7fae40863)">
     <use xlink:href="#mc13cbb6504" x="77.177826" y="185.91095" style="fill: #1f77b4; fill-opacity: 0.3; stroke: #ff69b4; stroke-opacity: 0.3"/>
     <use xlink:href="#mc13cbb6504" x="85.227922" y="175.980642" style="fill: #1f77b4; fill-opacity: 0.3; stroke: #ff69b4; stroke-opacity: 0.3"/>
     <use xlink:href="#mc13cbb6504" x="174.44982" y="73.423792" style="fill: #1f77b4; fill-opacity: 0.3; stroke: #ff69b4; stroke-opacity: 0.3"/>
    </g>
   </g>
   <g id="line2d_50">
    <path d="M 77.177826 227.950993 
L 85.227922 198.983778 
L 174.44982 93.593573 
" clip-path="url(#pd7fae40863)" style="fill: none; stroke: #ff69b4; stroke-width: 1.5; stroke-linecap: square"/>
    <defs>
     <path id="mbc425d42a3" d="M -3.5 3.5 
L 3.5 3.5 
L 3.5 -3.5 
L -3.5 -3.5 
z
" style="stroke: #ff69b4; stroke-linejoin: miter"/>
    </defs>
    <g clip-path="url(#pd7fae40863)">
     <use xlink:href="#mbc425d42a3" x="77.177826" y="227.950993" style="fill: #ff69b4; stroke: #ff69b4; stroke-linejoin: miter"/>
     <use xlink:href="#mbc425d42a3" x="85.227922" y="198.983778" style="fill: #ff69b4; stroke: #ff69b4; stroke-linejoin: miter"/>
     <use xlink:href="#mbc425d42a3" x="174.44982" y="93.593573" style="fill: #ff69b4; stroke: #ff69b4; stroke-linejoin: miter"/>
    </g>
   </g>
   <g id="LineCollection_7">
    <path d="M 167.294179 269.870128 
L 167.294179 219.199544 
" clip-path="url(#pd7fae40863)" style="fill: none; stroke: #ff6347; stroke-opacity: 0.3; stroke-width: 1.5"/>
    <path d="M 262.106422 212.771933 
L 262.106422 149.16996 
" clip-path="url(#pd7fae40863)" style="fill: none; stroke: #ff6347; stroke-opacity: 0.3; stroke-width: 1.5"/>
    <path d="M 449.718383 174.032653 
L 449.718383 125.426552 
" clip-path="url(#pd7fae40863)" style="fill: none; stroke: #ff6347; stroke-opacity: 0.3; stroke-width: 1.5"/>
   </g>
   <g id="line2d_51">
    <defs>
     <path id="m24c64698e4" d="M 4 0 
L -4 -0 
" style="stroke: #ff6347; stroke-opacity: 0.3"/>
    </defs>
    <g clip-path="url(#pd7fae40863)">
     <use xlink:href="#m24c64698e4" x="167.294179" y="269.870128" style="fill: #1f77b4; fill-opacity: 0.3; stroke: #ff6347; stroke-opacity: 0.3"/>
     <use xlink:href="#m24c64698e4" x="262.106422" y="212.771933" style="fill: #1f77b4; fill-opacity: 0.3; stroke: #ff6347; stroke-opacity: 0.3"/>
     <use xlink:href="#m24c64698e4" x="449.718383" y="174.032653" style="fill: #1f77b4; fill-opacity: 0.3; stroke: #ff6347; stroke-opacity: 0.3"/>
    </g>
   </g>
   <g id="line2d_52">
    <g clip-path="url(#pd7fae40863)">
     <use xlink:href="#m24c64698e4" x="167.294179" y="219.199544" style="fill: #1f77b4; fill-opacity: 0.3; stroke: #ff6347; stroke-opacity: 0.3"/>
     <use xlink:href="#m24c64698e4" x="262.106422" y="149.16996" style="fill: #1f77b4; fill-opacity: 0.3; stroke: #ff6347; stroke-opacity: 0.3"/>
     <use xlink:href="#m24c64698e4" x="449.718383" y="125.426552" style="fill: #1f77b4; fill-opacity: 0.3; stroke: #ff6347; stroke-opacity: 0.3"/>
    </g>
   </g>
   <g id="line2d_53">
    <path d="M 167.294179 244.534836 
L 262.106422 180.970946 
L 449.718383 149.729603 
" clip-path="url(#pd7fae40863)" style="fill: none; stroke: #ff6347; stroke-width: 1.5; stroke-linecap: square"/>
    <defs>
     <path id="m9301bab27f" d="M 0 -3.5 
L -3.031089 -1.75 
L -3.031089 1.75 
L -0 3.5 
L 3.031089 1.75 
L 3.031089 -1.75 
z
" style="stroke: #ff6347; stroke-linejoin: miter"/>
    </defs>
    <g clip-path="url(#pd7fae40863)">
     <use xlink:href="#m9301bab27f" x="167.294179" y="244.534836" style="fill: #ff6347; stroke: #ff6347; stroke-linejoin: miter"/>
     <use xlink:href="#m9301bab27f" x="262.106422" y="180.970946" style="fill: #ff6347; stroke: #ff6347; stroke-linejoin: miter"/>
     <use xlink:href="#m9301bab27f" x="449.718383" y="149.729603" style="fill: #ff6347; stroke: #ff6347; stroke-linejoin: miter"/>
    </g>
   </g>
   <g id="LineCollection_8">
    <path d="M 186.748578 332.392727 
L 186.748578 281.209838 
" clip-path="url(#pd7fae40863)" style="fill: none; stroke: #a52a2a; stroke-opacity: 0.3; stroke-width: 1.5"/>
    <path d="M 277.088545 167.788743 
L 277.088545 127.327632 
" clip-path="url(#pd7fae40863)" style="fill: none; stroke: #a52a2a; stroke-opacity: 0.3; stroke-width: 1.5"/>
    <path d="M 507.634352 114.684149 
L 507.634352 77.386429 
" clip-path="url(#pd7fae40863)" style="fill: none; stroke: #a52a2a; stroke-opacity: 0.3; stroke-width: 1.5"/>
   </g>
   <g id="line2d_54">
    <defs>
     <path id="m98b7b832c2" d="M 4 0 
L -4 -0 
" style="stroke: #a52a2a; stroke-opacity: 0.3"/>
    </defs>
    <g clip-path="url(#pd7fae40863)">
     <use xlink:href="#m98b7b832c2" x="186.748578" y="332.392727" style="fill: #1f77b4; fill-opacity: 0.3; stroke: #a52a2a; stroke-opacity: 0.3"/>
     <use xlink:href="#m98b7b832c2" x="277.088545" y="167.788743" style="fill: #1f77b4; fill-opacity: 0.3; stroke: #a52a2a; stroke-opacity: 0.3"/>
     <use xlink:href="#m98b7b832c2" x="507.634352" y="114.684149" style="fill: #1f77b4; fill-opacity: 0.3; stroke: #a52a2a; stroke-opacity: 0.3"/>
    </g>
   </g>
   <g id="line2d_55">
    <g clip-path="url(#pd7fae40863)">
     <use xlink:href="#m98b7b832c2" x="186.748578" y="281.209838" style="fill: #1f77b4; fill-opacity: 0.3; stroke: #a52a2a; stroke-opacity: 0.3"/>
     <use xlink:href="#m98b7b832c2" x="277.088545" y="127.327632" style="fill: #1f77b4; fill-opacity: 0.3; stroke: #a52a2a; stroke-opacity: 0.3"/>
     <use xlink:href="#m98b7b832c2" x="507.634352" y="77.386429" style="fill: #1f77b4; fill-opacity: 0.3; stroke: #a52a2a; stroke-opacity: 0.3"/>
    </g>
   </g>
   <g id="line2d_56">
    <path d="M 186.748578 306.801283 
L 277.088545 147.558188 
L 507.634352 96.035289 
" clip-path="url(#pd7fae40863)" style="fill: none; stroke: #a52a2a; stroke-width: 1.5; stroke-linecap: square"/>
    <defs>
     <path id="m01a4e45d6d" d="M -0 4.949747 
L 4.949747 0 
L 0 -4.949747 
L -4.949747 -0 
z
" style="stroke: #a52a2a; stroke-linejoin: miter"/>
    </defs>
    <g clip-path="url(#pd7fae40863)">
     <use xlink:href="#m01a4e45d6d" x="186.748578" y="306.801283" style="fill: #a52a2a; stroke: #a52a2a; stroke-linejoin: miter"/>
     <use xlink:href="#m01a4e45d6d" x="277.088545" y="147.558188" style="fill: #a52a2a; stroke: #a52a2a; stroke-linejoin: miter"/>
     <use xlink:href="#m01a4e45d6d" x="507.634352" y="96.035289" style="fill: #a52a2a; stroke: #a52a2a; stroke-linejoin: miter"/>
    </g>
   </g>
   <g id="LineCollection_9">
    <path d="M 205.532136 158.570512 
L 205.532136 117.790606 
" clip-path="url(#pd7fae40863)" style="fill: none; stroke: #4169e1; stroke-opacity: 0.3; stroke-width: 1.5"/>
    <path d="M 219.619804 98.074876 
L 219.619804 58.683631 
" clip-path="url(#pd7fae40863)" style="fill: none; stroke: #4169e1; stroke-opacity: 0.3; stroke-width: 1.5"/>
   </g>
   <g id="line2d_57">
    <defs>
     <path id="m6eb7fb378e" d="M 4 0 
L -4 -0 
" style="stroke: #4169e1; stroke-opacity: 0.3"/>
    </defs>
    <g clip-path="url(#pd7fae40863)">
     <use xlink:href="#m6eb7fb378e" x="205.532136" y="158.570512" style="fill: #1f77b4; fill-opacity: 0.3; stroke: #4169e1; stroke-opacity: 0.3"/>
     <use xlink:href="#m6eb7fb378e" x="219.619804" y="98.074876" style="fill: #1f77b4; fill-opacity: 0.3; stroke: #4169e1; stroke-opacity: 0.3"/>
    </g>
   </g>
   <g id="line2d_58">
    <g clip-path="url(#pd7fae40863)">
     <use xlink:href="#m6eb7fb378e" x="205.532136" y="117.790606" style="fill: #1f77b4; fill-opacity: 0.3; stroke: #4169e1; stroke-opacity: 0.3"/>
     <use xlink:href="#m6eb7fb378e" x="219.619804" y="58.683631" style="fill: #1f77b4; fill-opacity: 0.3; stroke: #4169e1; stroke-opacity: 0.3"/>
    </g>
   </g>
   <g id="line2d_59">
    <path d="M 205.532136 138.180559 
L 219.619804 78.379254 
" clip-path="url(#pd7fae40863)" style="fill: none; stroke: #4169e1; stroke-width: 1.5; stroke-linecap: square"/>
    <defs>
     <path id="m47f650eca5" d="M -3.5 3.5 
L 3.5 -3.5 
M -3.5 -3.5 
L 3.5 3.5 
" style="stroke: #4169e1"/>
    </defs>
    <g clip-path="url(#pd7fae40863)">
     <use xlink:href="#m47f650eca5" x="205.532136" y="138.180559" style="fill: #4169e1; stroke: #4169e1"/>
     <use xlink:href="#m47f650eca5" x="219.619804" y="78.379254" style="fill: #4169e1; stroke: #4169e1"/>
    </g>
   </g>
   <g id="patch_3">
    <path d="M 55.655 346.24 
L 55.655 41.6 
" style="fill: none; stroke: #000000; stroke-width: 0.8; stroke-linejoin: miter; stroke-linecap: square"/>
   </g>
   <g id="patch_4">
    <path d="M 529.157178 346.24 
L 529.157178 41.6 
" style="fill: none; stroke: #000000; stroke-width: 0.8; stroke-linejoin: miter; stroke-linecap: square"/>
   </g>
   <g id="patch_5">
    <path d="M 55.655 346.24 
L 529.157178 346.24 
" style="fill: none; stroke: #000000; stroke-width: 0.8; stroke-linejoin: miter; stroke-linecap: square"/>
   </g>
   <g id="patch_6">
    <path d="M 55.655 41.6 
L 529.157178 41.6 
" style="fill: none; stroke: #000000; stroke-width: 0.8; stroke-linejoin: miter; stroke-linecap: square"/>
   </g>
   <g id="text_19">
    <!-- train scene -->
    <g transform="translate(253.342808 21.6) scale(0.14 -0.14)">
     <defs>
      <path id="DejaVuSans-74" d="M 1172 4494 
L 1172 3500 
L 2356 3500 
L 2356 3053 
L 1172 3053 
L 1172 1153 
Q 1172 725 1289 603 
Q 1406 481 1766 481 
L 2356 481 
L 2356 0 
L 1766 0 
Q 1100 0 847 248 
Q 594 497 594 1153 
L 594 3053 
L 172 3053 
L 172 3500 
L 594 3500 
L 594 4494 
L 1172 4494 
z
" transform="scale(0.015625)"/>
      <path id="DejaVuSans-72" d="M 2631 2963 
Q 2534 3019 2420 3045 
Q 2306 3072 2169 3072 
Q 1681 3072 1420 2755 
Q 1159 2438 1159 1844 
L 1159 0 
L 581 0 
L 581 3500 
L 1159 3500 
L 1159 2956 
Q 1341 3275 1631 3429 
Q 1922 3584 2338 3584 
Q 2397 3584 2469 3576 
Q 2541 3569 2628 3553 
L 2631 2963 
z
" transform="scale(0.015625)"/>
      <path id="DejaVuSans-61" d="M 2194 1759 
Q 1497 1759 1228 1600 
Q 959 1441 959 1056 
Q 959 750 1161 570 
Q 1363 391 1709 391 
Q 2188 391 2477 730 
Q 2766 1069 2766 1631 
L 2766 1759 
L 2194 1759 
z
M 3341 1997 
L 3341 0 
L 2766 0 
L 2766 531 
Q 2569 213 2275 61 
Q 1981 -91 1556 -91 
Q 1019 -91 701 211 
Q 384 513 384 1019 
Q 384 1609 779 1909 
Q 1175 2209 1959 2209 
L 2766 2209 
L 2766 2266 
Q 2766 2663 2505 2880 
Q 2244 3097 1772 3097 
Q 1472 3097 1187 3025 
Q 903 2953 641 2809 
L 641 3341 
Q 956 3463 1253 3523 
Q 1550 3584 1831 3584 
Q 2591 3584 2966 3190 
Q 3341 2797 3341 1997 
z
" transform="scale(0.015625)"/>
      <path id="DejaVuSans-69" d="M 603 3500 
L 1178 3500 
L 1178 0 
L 603 0 
L 603 3500 
z
M 603 4863 
L 1178 4863 
L 1178 4134 
L 603 4134 
L 603 4863 
z
" transform="scale(0.015625)"/>
      <path id="DejaVuSans-6e" d="M 3513 2113 
L 3513 0 
L 2938 0 
L 2938 2094 
Q 2938 2591 2744 2837 
Q 2550 3084 2163 3084 
Q 1697 3084 1428 2787 
Q 1159 2491 1159 1978 
L 1159 0 
L 581 0 
L 581 3500 
L 1159 3500 
L 1159 2956 
Q 1366 3272 1645 3428 
Q 1925 3584 2291 3584 
Q 2894 3584 3203 3211 
Q 3513 2838 3513 2113 
z
" transform="scale(0.015625)"/>
      <path id="DejaVuSans-20" transform="scale(0.015625)"/>
      <path id="DejaVuSans-73" d="M 2834 3397 
L 2834 2853 
Q 2591 2978 2328 3040 
Q 2066 3103 1784 3103 
Q 1356 3103 1142 2972 
Q 928 2841 928 2578 
Q 928 2378 1081 2264 
Q 1234 2150 1697 2047 
L 1894 2003 
Q 2506 1872 2764 1633 
Q 3022 1394 3022 966 
Q 3022 478 2636 193 
Q 2250 -91 1575 -91 
Q 1294 -91 989 -36 
Q 684 19 347 128 
L 347 722 
Q 666 556 975 473 
Q 1284 391 1588 391 
Q 1994 391 2212 530 
Q 2431 669 2431 922 
Q 2431 1156 2273 1281 
Q 2116 1406 1581 1522 
L 1381 1569 
Q 847 1681 609 1914 
Q 372 2147 372 2553 
Q 372 3047 722 3315 
Q 1072 3584 1716 3584 
Q 2034 3584 2315 3537 
Q 2597 3491 2834 3397 
z
" transform="scale(0.015625)"/>
      <path id="DejaVuSans-63" d="M 3122 3366 
L 3122 2828 
Q 2878 2963 2633 3030 
Q 2388 3097 2138 3097 
Q 1578 3097 1268 2742 
Q 959 2388 959 1747 
Q 959 1106 1268 751 
Q 1578 397 2138 397 
Q 2388 397 2633 464 
Q 2878 531 3122 666 
L 3122 134 
Q 2881 22 2623 -34 
Q 2366 -91 2075 -91 
Q 1284 -91 818 406 
Q 353 903 353 1747 
Q 353 2603 823 3093 
Q 1294 3584 2113 3584 
Q 2378 3584 2631 3529 
Q 2884 3475 3122 3366 
z
" transform="scale(0.015625)"/>
      <path id="DejaVuSans-65" d="M 3597 1894 
L 3597 1613 
L 953 1613 
Q 991 1019 1311 708 
Q 1631 397 2203 397 
Q 2534 397 2845 478 
Q 3156 559 3463 722 
L 3463 178 
Q 3153 47 2828 -22 
Q 2503 -91 2169 -91 
Q 1331 -91 842 396 
Q 353 884 353 1716 
Q 353 2575 817 3079 
Q 1281 3584 2069 3584 
Q 2775 3584 3186 3129 
Q 3597 2675 3597 1894 
z
M 3022 2063 
Q 3016 2534 2758 2815 
Q 2500 3097 2075 3097 
Q 1594 3097 1305 2825 
Q 1016 2553 972 2059 
L 3022 2063 
z
" transform="scale(0.015625)"/>
     </defs>
     <use xlink:href="#DejaVuSans-74"/>
     <use xlink:href="#DejaVuSans-72" transform="translate(39.208984 0)"/>
     <use xlink:href="#DejaVuSans-61" transform="translate(80.322266 0)"/>
     <use xlink:href="#DejaVuSans-69" transform="translate(141.601562 0)"/>
     <use xlink:href="#DejaVuSans-6e" transform="translate(169.384766 0)"/>
     <use xlink:href="#DejaVuSans-20" transform="translate(232.763672 0)"/>
     <use xlink:href="#DejaVuSans-73" transform="translate(264.550781 0)"/>
     <use xlink:href="#DejaVuSans-63" transform="translate(316.650391 0)"/>
     <use xlink:href="#DejaVuSans-65" transform="translate(371.630859 0)"/>
     <use xlink:href="#DejaVuSans-6e" transform="translate(433.154297 0)"/>
     <use xlink:href="#DejaVuSans-65" transform="translate(496.533203 0)"/>
    </g>
   </g>
   <g id="legend_1">
    <g id="patch_7">
     <path d="M 382.733428 340.74 
L 521.457178 340.74 
Q 523.657178 340.74 523.657178 338.54 
L 523.657178 194.326562 
Q 523.657178 192.126562 521.457178 192.126562 
L 382.733428 192.126562 
Q 380.533428 192.126562 380.533428 194.326562 
L 380.533428 338.54 
Q 380.533428 340.74 382.733428 340.74 
z
" style="fill: #ffffff; opacity: 0.8; stroke: #cccccc; stroke-linejoin: miter"/>
    </g>
    <g id="line2d_60">
     <path d="M 384.933428 201.034844 
L 395.933428 201.034844 
L 406.933428 201.034844 
" style="fill: none; stroke: #ffa500; stroke-width: 1.5; stroke-linecap: square"/>
     <g>
      <use xlink:href="#m636b120690" x="395.933428" y="201.034844" style="fill: #ffa500; stroke: #ffa500; stroke-linejoin: miter"/>
     </g>
    </g>
    <g id="text_20">
     <!-- Compact3D -->
     <g transform="translate(415.733428 204.884844) scale(0.11 -0.11)">
      <defs>
       <path id="DejaVuSans-43" d="M 4122 4306 
L 4122 3641 
Q 3803 3938 3442 4084 
Q 3081 4231 2675 4231 
Q 1875 4231 1450 3742 
Q 1025 3253 1025 2328 
Q 1025 1406 1450 917 
Q 1875 428 2675 428 
Q 3081 428 3442 575 
Q 3803 722 4122 1019 
L 4122 359 
Q 3791 134 3420 21 
Q 3050 -91 2638 -91 
Q 1578 -91 968 557 
Q 359 1206 359 2328 
Q 359 3453 968 4101 
Q 1578 4750 2638 4750 
Q 3056 4750 3426 4639 
Q 3797 4528 4122 4306 
z
" transform="scale(0.015625)"/>
       <path id="DejaVuSans-6f" d="M 1959 3097 
Q 1497 3097 1228 2736 
Q 959 2375 959 1747 
Q 959 1119 1226 758 
Q 1494 397 1959 397 
Q 2419 397 2687 759 
Q 2956 1122 2956 1747 
Q 2956 2369 2687 2733 
Q 2419 3097 1959 3097 
z
M 1959 3584 
Q 2709 3584 3137 3096 
Q 3566 2609 3566 1747 
Q 3566 888 3137 398 
Q 2709 -91 1959 -91 
Q 1206 -91 779 398 
Q 353 888 353 1747 
Q 353 2609 779 3096 
Q 1206 3584 1959 3584 
z
" transform="scale(0.015625)"/>
       <path id="DejaVuSans-6d" d="M 3328 2828 
Q 3544 3216 3844 3400 
Q 4144 3584 4550 3584 
Q 5097 3584 5394 3201 
Q 5691 2819 5691 2113 
L 5691 0 
L 5113 0 
L 5113 2094 
Q 5113 2597 4934 2840 
Q 4756 3084 4391 3084 
Q 3944 3084 3684 2787 
Q 3425 2491 3425 1978 
L 3425 0 
L 2847 0 
L 2847 2094 
Q 2847 2600 2669 2842 
Q 2491 3084 2119 3084 
Q 1678 3084 1418 2786 
Q 1159 2488 1159 1978 
L 1159 0 
L 581 0 
L 581 3500 
L 1159 3500 
L 1159 2956 
Q 1356 3278 1631 3431 
Q 1906 3584 2284 3584 
Q 2666 3584 2933 3390 
Q 3200 3197 3328 2828 
z
" transform="scale(0.015625)"/>
       <path id="DejaVuSans-70" d="M 1159 525 
L 1159 -1331 
L 581 -1331 
L 581 3500 
L 1159 3500 
L 1159 2969 
Q 1341 3281 1617 3432 
Q 1894 3584 2278 3584 
Q 2916 3584 3314 3078 
Q 3713 2572 3713 1747 
Q 3713 922 3314 415 
Q 2916 -91 2278 -91 
Q 1894 -91 1617 61 
Q 1341 213 1159 525 
z
M 3116 1747 
Q 3116 2381 2855 2742 
Q 2594 3103 2138 3103 
Q 1681 3103 1420 2742 
Q 1159 2381 1159 1747 
Q 1159 1113 1420 752 
Q 1681 391 2138 391 
Q 2594 391 2855 752 
Q 3116 1113 3116 1747 
z
" transform="scale(0.015625)"/>
       <path id="DejaVuSans-44" d="M 1259 4147 
L 1259 519 
L 2022 519 
Q 2988 519 3436 956 
Q 3884 1394 3884 2338 
Q 3884 3275 3436 3711 
Q 2988 4147 2022 4147 
L 1259 4147 
z
M 628 4666 
L 1925 4666 
Q 3281 4666 3915 4102 
Q 4550 3538 4550 2338 
Q 4550 1131 3912 565 
Q 3275 0 1925 0 
L 628 0 
L 628 4666 
z
" transform="scale(0.015625)"/>
      </defs>
      <use xlink:href="#DejaVuSans-43"/>
      <use xlink:href="#DejaVuSans-6f" transform="translate(69.824219 0)"/>
      <use xlink:href="#DejaVuSans-6d" transform="translate(131.005859 0)"/>
      <use xlink:href="#DejaVuSans-70" transform="translate(228.417969 0)"/>
      <use xlink:href="#DejaVuSans-61" transform="translate(291.894531 0)"/>
      <use xlink:href="#DejaVuSans-63" transform="translate(353.173828 0)"/>
      <use xlink:href="#DejaVuSans-74" transform="translate(408.154297 0)"/>
      <use xlink:href="#DejaVuSans-33" transform="translate(447.363281 0)"/>
      <use xlink:href="#DejaVuSans-44" transform="translate(510.986328 0)"/>
     </g>
    </g>
    <g id="line2d_61">
     <path d="M 384.933428 217.180781 
L 395.933428 217.180781 
L 406.933428 217.180781 
" style="fill: none; stroke: #808080; stroke-width: 1.5; stroke-linecap: square"/>
     <g>
      <use xlink:href="#m3d901dfb28" x="395.933428" y="217.180781" style="fill: #808080; stroke: #808080; stroke-linejoin: miter"/>
     </g>
    </g>
    <g id="text_21">
     <!-- Context-GS -->
     <g transform="translate(415.733428 221.030781) scale(0.11 -0.11)">
      <defs>
       <path id="DejaVuSans-78" d="M 3513 3500 
L 2247 1797 
L 3578 0 
L 2900 0 
L 1881 1375 
L 863 0 
L 184 0 
L 1544 1831 
L 300 3500 
L 978 3500 
L 1906 2253 
L 2834 3500 
L 3513 3500 
z
" transform="scale(0.015625)"/>
       <path id="DejaVuSans-2d" d="M 313 2009 
L 1997 2009 
L 1997 1497 
L 313 1497 
L 313 2009 
z
" transform="scale(0.015625)"/>
       <path id="DejaVuSans-47" d="M 3809 666 
L 3809 1919 
L 2778 1919 
L 2778 2438 
L 4434 2438 
L 4434 434 
Q 4069 175 3628 42 
Q 3188 -91 2688 -91 
Q 1594 -91 976 548 
Q 359 1188 359 2328 
Q 359 3472 976 4111 
Q 1594 4750 2688 4750 
Q 3144 4750 3555 4637 
Q 3966 4525 4313 4306 
L 4313 3634 
Q 3963 3931 3569 4081 
Q 3175 4231 2741 4231 
Q 1884 4231 1454 3753 
Q 1025 3275 1025 2328 
Q 1025 1384 1454 906 
Q 1884 428 2741 428 
Q 3075 428 3337 486 
Q 3600 544 3809 666 
z
" transform="scale(0.015625)"/>
       <path id="DejaVuSans-53" d="M 3425 4513 
L 3425 3897 
Q 3066 4069 2747 4153 
Q 2428 4238 2131 4238 
Q 1616 4238 1336 4038 
Q 1056 3838 1056 3469 
Q 1056 3159 1242 3001 
Q 1428 2844 1947 2747 
L 2328 2669 
Q 3034 2534 3370 2195 
Q 3706 1856 3706 1288 
Q 3706 609 3251 259 
Q 2797 -91 1919 -91 
Q 1588 -91 1214 -16 
Q 841 59 441 206 
L 441 856 
Q 825 641 1194 531 
Q 1563 422 1919 422 
Q 2459 422 2753 634 
Q 3047 847 3047 1241 
Q 3047 1584 2836 1778 
Q 2625 1972 2144 2069 
L 1759 2144 
Q 1053 2284 737 2584 
Q 422 2884 422 3419 
Q 422 4038 858 4394 
Q 1294 4750 2059 4750 
Q 2388 4750 2728 4690 
Q 3069 4631 3425 4513 
z
" transform="scale(0.015625)"/>
      </defs>
      <use xlink:href="#DejaVuSans-43"/>
      <use xlink:href="#DejaVuSans-6f" transform="translate(69.824219 0)"/>
      <use xlink:href="#DejaVuSans-6e" transform="translate(131.005859 0)"/>
      <use xlink:href="#DejaVuSans-74" transform="translate(194.384766 0)"/>
      <use xlink:href="#DejaVuSans-65" transform="translate(233.59375 0)"/>
      <use xlink:href="#DejaVuSans-78" transform="translate(293.367188 0)"/>
      <use xlink:href="#DejaVuSans-74" transform="translate(352.546875 0)"/>
      <use xlink:href="#DejaVuSans-2d" transform="translate(391.755859 0)"/>
      <use xlink:href="#DejaVuSans-47" transform="translate(431.464844 0)"/>
      <use xlink:href="#DejaVuSans-53" transform="translate(508.955078 0)"/>
     </g>
    </g>
    <g id="line2d_62">
     <path d="M 384.933428 233.326719 
L 395.933428 233.326719 
L 406.933428 233.326719 
" style="fill: none; stroke: #008080; stroke-width: 1.5; stroke-linecap: square"/>
     <g>
      <use xlink:href="#m32d5a48127" x="395.933428" y="233.326719" style="fill: #008080; stroke: #008080; stroke-linejoin: miter"/>
     </g>
    </g>
    <g id="text_22">
     <!-- FCGS -->
     <g transform="translate(415.733428 237.176719) scale(0.11 -0.11)">
      <defs>
       <path id="DejaVuSans-46" d="M 628 4666 
L 3309 4666 
L 3309 4134 
L 1259 4134 
L 1259 2759 
L 3109 2759 
L 3109 2228 
L 1259 2228 
L 1259 0 
L 628 0 
L 628 4666 
z
" transform="scale(0.015625)"/>
      </defs>
      <use xlink:href="#DejaVuSans-46"/>
      <use xlink:href="#DejaVuSans-43" transform="translate(57.519531 0)"/>
      <use xlink:href="#DejaVuSans-47" transform="translate(127.34375 0)"/>
      <use xlink:href="#DejaVuSans-53" transform="translate(204.833984 0)"/>
     </g>
    </g>
    <g id="line2d_63">
     <path d="M 384.933428 249.472656 
L 395.933428 249.472656 
L 406.933428 249.472656 
" style="fill: none; stroke: #dc143c; stroke-width: 1.5; stroke-linecap: square"/>
     <g>
      <use xlink:href="#m60d52e6993" x="395.933428" y="249.472656" style="fill: #dc143c; stroke: #dc143c"/>
     </g>
    </g>
    <g id="text_23">
     <!-- GSICO-3DGS -->
     <g transform="translate(415.733428 253.322656) scale(0.11 -0.11)">
      <defs>
       <path id="DejaVuSans-49" d="M 628 4666 
L 1259 4666 
L 1259 0 
L 628 0 
L 628 4666 
z
" transform="scale(0.015625)"/>
       <path id="DejaVuSans-4f" d="M 2522 4238 
Q 1834 4238 1429 3725 
Q 1025 3213 1025 2328 
Q 1025 1447 1429 934 
Q 1834 422 2522 422 
Q 3209 422 3611 934 
Q 4013 1447 4013 2328 
Q 4013 3213 3611 3725 
Q 3209 4238 2522 4238 
z
M 2522 4750 
Q 3503 4750 4090 4092 
Q 4678 3434 4678 2328 
Q 4678 1225 4090 567 
Q 3503 -91 2522 -91 
Q 1538 -91 948 565 
Q 359 1222 359 2328 
Q 359 3434 948 4092 
Q 1538 4750 2522 4750 
z
" transform="scale(0.015625)"/>
      </defs>
      <use xlink:href="#DejaVuSans-47"/>
      <use xlink:href="#DejaVuSans-53" transform="translate(77.490234 0)"/>
      <use xlink:href="#DejaVuSans-49" transform="translate(140.966797 0)"/>
      <use xlink:href="#DejaVuSans-43" transform="translate(170.458984 0)"/>
      <use xlink:href="#DejaVuSans-4f" transform="translate(240.283203 0)"/>
      <use xlink:href="#DejaVuSans-2d" transform="translate(321.744141 0)"/>
      <use xlink:href="#DejaVuSans-33" transform="translate(357.828125 0)"/>
      <use xlink:href="#DejaVuSans-44" transform="translate(421.451172 0)"/>
      <use xlink:href="#DejaVuSans-47" transform="translate(498.453125 0)"/>
      <use xlink:href="#DejaVuSans-53" transform="translate(575.943359 0)"/>
     </g>
    </g>
    <g id="line2d_64">
     <path d="M 384.933428 265.618594 
L 395.933428 265.618594 
L 406.933428 265.618594 
" style="fill: none; stroke: #000000; stroke-width: 1.5; stroke-linecap: square"/>
     <g>
      <use xlink:href="#m60d2993e0d" x="395.933428" y="265.618594" style="stroke: #000000"/>
     </g>
    </g>
    <g id="text_24">
     <!-- GSICO-Scaffold-GS -->
     <g transform="translate(415.733428 269.468594) scale(0.11 -0.11)">
      <defs>
       <path id="DejaVuSans-66" d="M 2375 4863 
L 2375 4384 
L 1825 4384 
Q 1516 4384 1395 4259 
Q 1275 4134 1275 3809 
L 1275 3500 
L 2222 3500 
L 2222 3053 
L 1275 3053 
L 1275 0 
L 697 0 
L 697 3053 
L 147 3053 
L 147 3500 
L 697 3500 
L 697 3744 
Q 697 4328 969 4595 
Q 1241 4863 1831 4863 
L 2375 4863 
z
" transform="scale(0.015625)"/>
       <path id="DejaVuSans-6c" d="M 603 4863 
L 1178 4863 
L 1178 0 
L 603 0 
L 603 4863 
z
" transform="scale(0.015625)"/>
       <path id="DejaVuSans-64" d="M 2906 2969 
L 2906 4863 
L 3481 4863 
L 3481 0 
L 2906 0 
L 2906 525 
Q 2725 213 2448 61 
Q 2172 -91 1784 -91 
Q 1150 -91 751 415 
Q 353 922 353 1747 
Q 353 2572 751 3078 
Q 1150 3584 1784 3584 
Q 2172 3584 2448 3432 
Q 2725 3281 2906 2969 
z
M 947 1747 
Q 947 1113 1208 752 
Q 1469 391 1925 391 
Q 2381 391 2643 752 
Q 2906 1113 2906 1747 
Q 2906 2381 2643 2742 
Q 2381 3103 1925 3103 
Q 1469 3103 1208 2742 
Q 947 2381 947 1747 
z
" transform="scale(0.015625)"/>
      </defs>
      <use xlink:href="#DejaVuSans-47"/>
      <use xlink:href="#DejaVuSans-53" transform="translate(77.490234 0)"/>
      <use xlink:href="#DejaVuSans-49" transform="translate(140.966797 0)"/>
      <use xlink:href="#DejaVuSans-43" transform="translate(170.458984 0)"/>
      <use xlink:href="#DejaVuSans-4f" transform="translate(240.283203 0)"/>
      <use xlink:href="#DejaVuSans-2d" transform="translate(321.744141 0)"/>
      <use xlink:href="#DejaVuSans-53" transform="translate(357.828125 0)"/>
      <use xlink:href="#DejaVuSans-63" transform="translate(421.304688 0)"/>
      <use xlink:href="#DejaVuSans-61" transform="translate(476.285156 0)"/>
      <use xlink:href="#DejaVuSans-66" transform="translate(537.564453 0)"/>
      <use xlink:href="#DejaVuSans-66" transform="translate(572.769531 0)"/>
      <use xlink:href="#DejaVuSans-6f" transform="translate(607.974609 0)"/>
      <use xlink:href="#DejaVuSans-6c" transform="translate(669.15625 0)"/>
      <use xlink:href="#DejaVuSans-64" transform="translate(696.939453 0)"/>
      <use xlink:href="#DejaVuSans-2d" transform="translate(760.416016 0)"/>
      <use xlink:href="#DejaVuSans-47" transform="translate(800.125 0)"/>
      <use xlink:href="#DejaVuSans-53" transform="translate(877.615234 0)"/>
     </g>
    </g>
    <g id="line2d_65">
     <path d="M 384.933428 281.764531 
L 395.933428 281.764531 
L 406.933428 281.764531 
" style="fill: none; stroke: #ff69b4; stroke-width: 1.5; stroke-linecap: square"/>
     <g>
      <use xlink:href="#mbc425d42a3" x="395.933428" y="281.764531" style="fill: #ff69b4; stroke: #ff69b4; stroke-linejoin: miter"/>
     </g>
    </g>
    <g id="text_25">
     <!-- HAC++ -->
     <g transform="translate(415.733428 285.614531) scale(0.11 -0.11)">
      <defs>
       <path id="DejaVuSans-48" d="M 628 4666 
L 1259 4666 
L 1259 2753 
L 3553 2753 
L 3553 4666 
L 4184 4666 
L 4184 0 
L 3553 0 
L 3553 2222 
L 1259 2222 
L 1259 0 
L 628 0 
L 628 4666 
z
" transform="scale(0.015625)"/>
       <path id="DejaVuSans-41" d="M 2188 4044 
L 1331 1722 
L 3047 1722 
L 2188 4044 
z
M 1831 4666 
L 2547 4666 
L 4325 0 
L 3669 0 
L 3244 1197 
L 1141 1197 
L 716 0 
L 50 0 
L 1831 4666 
z
" transform="scale(0.015625)"/>
       <path id="DejaVuSans-2b" d="M 2944 4013 
L 2944 2272 
L 4684 2272 
L 4684 1741 
L 2944 1741 
L 2944 0 
L 2419 0 
L 2419 1741 
L 678 1741 
L 678 2272 
L 2419 2272 
L 2419 4013 
L 2944 4013 
z
" transform="scale(0.015625)"/>
      </defs>
      <use xlink:href="#DejaVuSans-48"/>
      <use xlink:href="#DejaVuSans-41" transform="translate(75.195312 0)"/>
      <use xlink:href="#DejaVuSans-43" transform="translate(141.853516 0)"/>
      <use xlink:href="#DejaVuSans-2b" transform="translate(211.677734 0)"/>
      <use xlink:href="#DejaVuSans-2b" transform="translate(295.466797 0)"/>
     </g>
    </g>
    <g id="line2d_66">
     <path d="M 384.933428 297.910469 
L 395.933428 297.910469 
L 406.933428 297.910469 
" style="fill: none; stroke: #ff6347; stroke-width: 1.5; stroke-linecap: square"/>
     <g>
      <use xlink:href="#m9301bab27f" x="395.933428" y="297.910469" style="fill: #ff6347; stroke: #ff6347; stroke-linejoin: miter"/>
     </g>
    </g>
    <g id="text_26">
     <!-- LightGaussian -->
     <g transform="translate(415.733428 301.760469) scale(0.11 -0.11)">
      <defs>
       <path id="DejaVuSans-4c" d="M 628 4666 
L 1259 4666 
L 1259 531 
L 3531 531 
L 3531 0 
L 628 0 
L 628 4666 
z
" transform="scale(0.015625)"/>
       <path id="DejaVuSans-67" d="M 2906 1791 
Q 2906 2416 2648 2759 
Q 2391 3103 1925 3103 
Q 1463 3103 1205 2759 
Q 947 2416 947 1791 
Q 947 1169 1205 825 
Q 1463 481 1925 481 
Q 2391 481 2648 825 
Q 2906 1169 2906 1791 
z
M 3481 434 
Q 3481 -459 3084 -895 
Q 2688 -1331 1869 -1331 
Q 1566 -1331 1297 -1286 
Q 1028 -1241 775 -1147 
L 775 -588 
Q 1028 -725 1275 -790 
Q 1522 -856 1778 -856 
Q 2344 -856 2625 -561 
Q 2906 -266 2906 331 
L 2906 616 
Q 2728 306 2450 153 
Q 2172 0 1784 0 
Q 1141 0 747 490 
Q 353 981 353 1791 
Q 353 2603 747 3093 
Q 1141 3584 1784 3584 
Q 2172 3584 2450 3431 
Q 2728 3278 2906 2969 
L 2906 3500 
L 3481 3500 
L 3481 434 
z
" transform="scale(0.015625)"/>
       <path id="DejaVuSans-68" d="M 3513 2113 
L 3513 0 
L 2938 0 
L 2938 2094 
Q 2938 2591 2744 2837 
Q 2550 3084 2163 3084 
Q 1697 3084 1428 2787 
Q 1159 2491 1159 1978 
L 1159 0 
L 581 0 
L 581 4863 
L 1159 4863 
L 1159 2956 
Q 1366 3272 1645 3428 
Q 1925 3584 2291 3584 
Q 2894 3584 3203 3211 
Q 3513 2838 3513 2113 
z
" transform="scale(0.015625)"/>
       <path id="DejaVuSans-75" d="M 544 1381 
L 544 3500 
L 1119 3500 
L 1119 1403 
Q 1119 906 1312 657 
Q 1506 409 1894 409 
Q 2359 409 2629 706 
Q 2900 1003 2900 1516 
L 2900 3500 
L 3475 3500 
L 3475 0 
L 2900 0 
L 2900 538 
Q 2691 219 2414 64 
Q 2138 -91 1772 -91 
Q 1169 -91 856 284 
Q 544 659 544 1381 
z
M 1991 3584 
L 1991 3584 
z
" transform="scale(0.015625)"/>
      </defs>
      <use xlink:href="#DejaVuSans-4c"/>
      <use xlink:href="#DejaVuSans-69" transform="translate(55.712891 0)"/>
      <use xlink:href="#DejaVuSans-67" transform="translate(83.496094 0)"/>
      <use xlink:href="#DejaVuSans-68" transform="translate(146.972656 0)"/>
      <use xlink:href="#DejaVuSans-74" transform="translate(210.351562 0)"/>
      <use xlink:href="#DejaVuSans-47" transform="translate(249.560547 0)"/>
      <use xlink:href="#DejaVuSans-61" transform="translate(327.050781 0)"/>
      <use xlink:href="#DejaVuSans-75" transform="translate(388.330078 0)"/>
      <use xlink:href="#DejaVuSans-73" transform="translate(451.708984 0)"/>
      <use xlink:href="#DejaVuSans-73" transform="translate(503.808594 0)"/>
      <use xlink:href="#DejaVuSans-69" transform="translate(555.908203 0)"/>
      <use xlink:href="#DejaVuSans-61" transform="translate(583.691406 0)"/>
      <use xlink:href="#DejaVuSans-6e" transform="translate(644.970703 0)"/>
     </g>
    </g>
    <g id="line2d_67">
     <path d="M 384.933428 314.056406 
L 395.933428 314.056406 
L 406.933428 314.056406 
" style="fill: none; stroke: #a52a2a; stroke-width: 1.5; stroke-linecap: square"/>
     <g>
      <use xlink:href="#m01a4e45d6d" x="395.933428" y="314.056406" style="fill: #a52a2a; stroke: #a52a2a; stroke-linejoin: miter"/>
     </g>
    </g>
    <g id="text_27">
     <!-- Reduced3DGS -->
     <g transform="translate(415.733428 317.906406) scale(0.11 -0.11)">
      <defs>
       <path id="DejaVuSans-52" d="M 2841 2188 
Q 3044 2119 3236 1894 
Q 3428 1669 3622 1275 
L 4263 0 
L 3584 0 
L 2988 1197 
Q 2756 1666 2539 1819 
Q 2322 1972 1947 1972 
L 1259 1972 
L 1259 0 
L 628 0 
L 628 4666 
L 2053 4666 
Q 2853 4666 3247 4331 
Q 3641 3997 3641 3322 
Q 3641 2881 3436 2590 
Q 3231 2300 2841 2188 
z
M 1259 4147 
L 1259 2491 
L 2053 2491 
Q 2509 2491 2742 2702 
Q 2975 2913 2975 3322 
Q 2975 3731 2742 3939 
Q 2509 4147 2053 4147 
L 1259 4147 
z
" transform="scale(0.015625)"/>
      </defs>
      <use xlink:href="#DejaVuSans-52"/>
      <use xlink:href="#DejaVuSans-65" transform="translate(64.982422 0)"/>
      <use xlink:href="#DejaVuSans-64" transform="translate(126.505859 0)"/>
      <use xlink:href="#DejaVuSans-75" transform="translate(189.982422 0)"/>
      <use xlink:href="#DejaVuSans-63" transform="translate(253.361328 0)"/>
      <use xlink:href="#DejaVuSans-65" transform="translate(308.341797 0)"/>
      <use xlink:href="#DejaVuSans-64" transform="translate(369.865234 0)"/>
      <use xlink:href="#DejaVuSans-33" transform="translate(433.341797 0)"/>
      <use xlink:href="#DejaVuSans-44" transform="translate(496.964844 0)"/>
      <use xlink:href="#DejaVuSans-47" transform="translate(573.966797 0)"/>
      <use xlink:href="#DejaVuSans-53" transform="translate(651.457031 0)"/>
     </g>
    </g>
    <g id="line2d_68">
     <path d="M 384.933428 330.202344 
L 395.933428 330.202344 
L 406.933428 330.202344 
" style="fill: none; stroke: #4169e1; stroke-width: 1.5; stroke-linecap: square"/>
     <g>
      <use xlink:href="#m47f650eca5" x="395.933428" y="330.202344" style="fill: #4169e1; stroke: #4169e1"/>
     </g>
    </g>
    <g id="text_28">
     <!-- SOG -->
     <g transform="translate(415.733428 334.052344) scale(0.11 -0.11)">
      <use xlink:href="#DejaVuSans-53"/>
      <use xlink:href="#DejaVuSans-4f" transform="translate(63.476562 0)"/>
      <use xlink:href="#DejaVuSans-47" transform="translate(142.1875 0)"/>
     </g>
    </g>
   </g>
  </g>
 </g>
 <defs>
  <clipPath id="pd7fae40863">
   <rect x="55.655" y="41.6" width="473.502178" height="304.64"/>
  </clipPath>
 </defs>
</svg>
